<svg width="99" height="101" viewBox="0 0 99 101" fill="none" xmlns="http://www.w3.org/2000/svg">
<g id="Group 1000001776">
<g id="Group 37">
<path id="3" d="M48.6775 4.2168C48.9402 4.2168 49.1656 4.26188 49.3538 4.35206C49.5459 4.44223 49.689 4.56377 49.7831 4.71668C49.8811 4.86958 49.9301 5.03817 49.9301 5.22244C49.9301 5.4616 49.8615 5.66155 49.7243 5.82229C49.5871 5.97912 49.3989 6.0889 49.1597 6.15163C49.4224 6.17515 49.6381 6.26925 49.8066 6.43391C49.9752 6.59858 50.0595 6.82598 50.0595 7.1161C50.0595 7.3435 50.0007 7.54933 49.8831 7.7336C49.7694 7.91787 49.6047 8.06489 49.3891 8.17467C49.1735 8.28053 48.9186 8.33346 48.6246 8.33346C48.0835 8.33346 47.6562 8.14331 47.3425 7.76301L47.7601 7.3631C47.8934 7.4964 48.0247 7.59442 48.1541 7.65715C48.2835 7.71596 48.4266 7.74536 48.5834 7.74536C48.7951 7.74536 48.9637 7.68655 49.0892 7.56893C49.2185 7.4474 49.2832 7.28469 49.2832 7.08082C49.2832 6.85342 49.2225 6.69071 49.1009 6.5927C48.9833 6.49468 48.8069 6.44567 48.5716 6.44567H48.26L48.3482 5.91051H48.5599C48.752 5.91051 48.9049 5.85758 49.0186 5.75172C49.1362 5.64587 49.195 5.49884 49.195 5.31065C49.195 5.14991 49.1421 5.02445 49.0362 4.93427C48.9304 4.84018 48.7892 4.79313 48.6128 4.79313C48.4599 4.79313 48.3207 4.82253 48.1953 4.88134C48.0698 4.93623 47.9443 5.02249 47.8189 5.14011L47.4366 4.72256C47.7934 4.38538 48.207 4.2168 48.6775 4.2168Z" fill="#82919B"/>
<g id="CH">
<path d="M35.887 0C36.3731 0 36.7809 0.0627299 37.1102 0.18819C37.4474 0.31365 37.7885 0.517523 38.1335 0.799808L37.5219 1.51728C37.0279 1.11738 36.5064 0.917427 35.9575 0.917427C35.2832 0.917427 34.7382 1.17619 34.3226 1.69371C33.9149 2.21123 33.711 3.04241 33.711 4.18723C33.711 5.30069 33.9149 6.12402 34.3226 6.65723C34.7304 7.18259 35.2714 7.44527 35.9458 7.44527C36.2908 7.44527 36.5927 7.38646 36.8514 7.26885C37.1102 7.15123 37.3847 6.98656 37.6748 6.77485L38.2276 7.48056C37.9767 7.73932 37.6552 7.95496 37.2631 8.12746C36.871 8.29997 36.4202 8.38622 35.9105 8.38622C35.2518 8.38622 34.6637 8.22548 34.1462 7.90399C33.6365 7.57465 33.2366 7.09634 32.9465 6.46904C32.6642 5.83389 32.5231 5.07329 32.5231 4.18723C32.5231 3.30117 32.6721 2.54449 32.97 1.91719C33.268 1.28205 33.6718 0.803729 34.1815 0.482237C34.6912 0.160746 35.2597 0 35.887 0Z" fill="#82919B"/>
<path d="M44.1623 8.24508V4.44599H40.7513V8.24508H39.634V0.141143H40.7513V3.52857H44.1623V0.141143H45.2797V8.24508H44.1623Z" fill="#82919B"/>
</g>
</g>
<g id="Group 38">
<path id="3_2" d="M96.9447 29.5293C97.2074 29.5293 97.4328 29.5744 97.621 29.6646C97.8131 29.7547 97.9562 29.8763 98.0503 30.0292C98.1483 30.1821 98.1974 30.3507 98.1974 30.5349C98.1974 30.7741 98.1287 30.974 97.9915 31.1348C97.8543 31.2916 97.6661 31.4014 97.427 31.4641C97.6896 31.4877 97.9053 31.5817 98.0739 31.7464C98.2424 31.9111 98.3267 32.1385 98.3267 32.4286C98.3267 32.656 98.2679 32.8618 98.1503 33.0461C98.0366 33.2304 97.8719 33.3774 97.6563 33.4872C97.4407 33.593 97.1858 33.646 96.8918 33.646C96.3507 33.646 95.9234 33.4558 95.6097 33.0755L96.0273 32.6756C96.1606 32.8089 96.2919 32.9069 96.4213 32.9696C96.5507 33.0285 96.6938 33.0579 96.8506 33.0579C97.0623 33.0579 97.2309 32.9991 97.3564 32.8814C97.4858 32.7599 97.5505 32.5972 97.5505 32.3933C97.5505 32.1659 97.4897 32.0032 97.3681 31.9052C97.2505 31.8072 97.0741 31.7582 96.8389 31.7582H96.5272L96.6154 31.223H96.8271C97.0192 31.223 97.1721 31.1701 97.2858 31.0642C97.4034 30.9584 97.4622 30.8113 97.4622 30.6232C97.4622 30.4624 97.4093 30.3369 97.3035 30.2468C97.1976 30.1527 97.0565 30.1056 96.88 30.1056C96.7271 30.1056 96.5879 30.135 96.4625 30.1938C96.337 30.2487 96.2116 30.335 96.0861 30.4526L95.7038 30.0351C96.0606 29.6979 96.4742 29.5293 96.9447 29.5293Z" fill="#82919B"/>
<g id="CH_2">
<path d="M84.1542 25.3125C84.6403 25.3125 85.0481 25.3752 85.3774 25.5007C85.7146 25.6262 86.0557 25.83 86.4007 26.1123L85.7891 26.8298C85.2951 26.4299 84.7736 26.2299 84.2248 26.2299C83.5504 26.2299 83.0054 26.4887 82.5899 27.0062C82.1821 27.5237 81.9782 28.3549 81.9782 29.4997C81.9782 30.6132 82.1821 31.4365 82.5899 31.9697C82.9976 32.4951 83.5386 32.7578 84.213 32.7578C84.558 32.7578 84.8599 32.699 85.1187 32.5813C85.3774 32.4637 85.6519 32.2991 85.942 32.0873L86.4948 32.7931C86.2439 33.0518 85.9224 33.2675 85.5303 33.44C85.1383 33.6125 84.6874 33.6987 84.1777 33.6987C83.519 33.6987 82.9309 33.538 82.4134 33.2165C81.9037 32.8872 81.5038 32.4088 81.2137 31.7815C80.9314 31.1464 80.7903 30.3858 80.7903 29.4997C80.7903 28.6137 80.9393 27.857 81.2372 27.2297C81.5352 26.5945 81.939 26.1162 82.4487 25.7947C82.9584 25.4732 83.5269 25.3125 84.1542 25.3125Z" fill="#82919B"/>
<path d="M92.4295 33.5576V29.7585H89.0185V33.5576H87.9012V25.4536H89.0185V28.8411H92.4295V25.4536H93.5469V33.5576H92.4295Z" fill="#82919B"/>
</g>
</g>
<path id="Vector 92" d="M33.2797 25.2562L33.2797 12.8511" stroke="#82919B" stroke-width="0.5"/>
<path id="Vector 93" d="M67.1597 40.5001L77.2847 33.8799" stroke="#82919B" stroke-width="0.5"/>
<g id="Group 30">
<path id="Vector 81" d="M1 40.6498L33.3452 25.1528L67.1606 40.6498V83.9167L33.3452 100.135L1 83.9167V40.6498Z" stroke="#82919B" stroke-width="0.5"/>
<circle id="Ellipse 13" cx="34.4467" cy="62.2762" r="28.052" stroke="#82919B" stroke-width="0.5"/>
</g>
</g>
</svg>
