<svg width="152" height="228" viewBox="0 0 152 228" fill="none" xmlns="http://www.w3.org/2000/svg">
<path d="M109.093 9.56006C109.689 9.56006 110.2 9.66228 110.626 9.86673C111.062 10.0712 111.386 10.3467 111.6 10.6934C111.822 11.0401 111.933 11.4223 111.933 11.8401C111.933 12.3823 111.778 12.8356 111.466 13.2001C111.155 13.5556 110.729 13.8045 110.186 13.9467C110.782 14.0001 111.271 14.2134 111.653 14.5867C112.035 14.9601 112.226 15.4756 112.226 16.1334C112.226 16.6489 112.093 17.1156 111.826 17.5334C111.569 17.9512 111.195 18.2845 110.706 18.5334C110.218 18.7734 109.64 18.8934 108.973 18.8934C107.746 18.8934 106.778 18.4623 106.066 17.6001L107.013 16.6934C107.315 16.9956 107.613 17.2178 107.906 17.3601C108.2 17.4934 108.524 17.5601 108.88 17.5601C109.36 17.5601 109.742 17.4267 110.026 17.1601C110.32 16.8845 110.466 16.5156 110.466 16.0534C110.466 15.5378 110.329 15.1689 110.053 14.9467C109.786 14.7245 109.386 14.6134 108.853 14.6134H108.146L108.346 13.4001H108.826C109.262 13.4001 109.609 13.2801 109.866 13.0401C110.133 12.8001 110.266 12.4667 110.266 12.0401C110.266 11.6756 110.146 11.3912 109.906 11.1867C109.666 10.9734 109.346 10.8667 108.946 10.8667C108.6 10.8667 108.284 10.9334 108 11.0667C107.715 11.1912 107.431 11.3867 107.146 11.6534L106.28 10.7067C107.089 9.94228 108.026 9.56006 109.093 9.56006Z" fill="#82919B"/>
<path d="M80.0954 0C81.1976 0 82.1221 0.142222 82.8688 0.426666C83.6332 0.711111 84.4065 1.17333 85.1887 1.81333L83.8021 3.44C82.6821 2.53333 81.4999 2.08 80.2554 2.08C78.7265 2.08 77.491 2.66667 76.5487 3.84C75.6243 5.01333 75.1621 6.89778 75.1621 9.49333C75.1621 12.0178 75.6243 13.8844 76.5487 15.0933C77.4732 16.2844 78.6999 16.88 80.2288 16.88C81.011 16.88 81.6954 16.7467 82.2821 16.48C82.8688 16.2133 83.491 15.84 84.1488 15.36L85.4021 16.96C84.8332 17.5467 84.1043 18.0356 83.2154 18.4267C82.3265 18.8178 81.3043 19.0133 80.1488 19.0133C78.6554 19.0133 77.3221 18.6489 76.1487 17.92C74.9932 17.1733 74.0865 16.0889 73.4288 14.6667C72.7887 13.2267 72.4688 11.5022 72.4688 9.49333C72.4688 7.48444 72.8065 5.76889 73.4821 4.34667C74.1576 2.90667 75.0732 1.82222 76.2287 1.09333C77.3843 0.364444 78.6732 0 80.0954 0Z" fill="#82919B"/>
<path d="M98.8573 18.6933V10.08H91.124V18.6933H88.5906V0.320001H91.124V8H98.8573V0.320001H101.391V18.6933H98.8573Z" fill="#82919B"/>
<path d="M76.0039 58.2758L76.0039 30.1508" stroke="#82919B"/>
<path d="M1 92.1613L74.3333 57.0264L151 92.1613V190.257L74.3333 227.026L1 190.257V92.1613Z" stroke="#82919B"/>
<circle cx="76.8307" cy="141.193" r="63.6667" stroke="#82919B"/>
</svg>
