<svg width="148" height="271" viewBox="0 0 148 271" fill="none" xmlns="http://www.w3.org/2000/svg">
<path d="M106.182 9.3302C106.763 9.3302 107.26 9.42977 107.676 9.62891C108.1 9.82805 108.416 10.0965 108.624 10.4341C108.841 10.7718 108.949 11.1441 108.949 11.551C108.949 12.0792 108.797 12.5207 108.494 12.8757C108.191 13.2221 107.776 13.4645 107.247 13.603C107.828 13.655 108.304 13.8628 108.676 14.2264C109.048 14.5901 109.235 15.0922 109.235 15.7329C109.235 16.2351 109.105 16.6897 108.845 17.0966C108.594 17.5035 108.23 17.8282 107.754 18.0706C107.278 18.3044 106.715 18.4213 106.066 18.4213C104.871 18.4213 103.927 18.0014 103.234 17.1615L104.156 16.2784C104.451 16.5728 104.741 16.7892 105.027 16.9278C105.312 17.0576 105.628 17.1226 105.975 17.1226C106.442 17.1226 106.815 16.9927 107.092 16.733C107.377 16.4646 107.52 16.1052 107.52 15.655C107.52 15.1528 107.386 14.7935 107.118 14.5771C106.858 14.3606 106.468 14.2524 105.949 14.2524H105.26L105.455 13.0705H105.923C106.347 13.0705 106.685 12.9537 106.936 12.7199C107.195 12.4861 107.325 12.1614 107.325 11.7458C107.325 11.3909 107.208 11.1138 106.975 10.9147C106.741 10.7069 106.429 10.603 106.04 10.603C105.702 10.603 105.395 10.6679 105.118 10.7978C104.84 10.919 104.563 11.1095 104.286 11.3692L103.442 10.4471C104.23 9.7025 105.144 9.3302 106.182 9.3302Z" fill="#82919B"/>
<path d="M77.9365 0.0183105C79.0102 0.0183105 79.9106 0.156841 80.6379 0.433903C81.3825 0.710966 82.1358 1.16119 82.8977 1.78458L81.547 3.36903C80.4561 2.4859 79.3045 2.04433 78.0924 2.04433C76.6032 2.04433 75.3997 2.61577 74.4819 3.75865C73.5815 4.90153 73.1312 6.73707 73.1312 9.26526C73.1312 11.7242 73.5815 13.5424 74.4819 14.7199C75.3824 15.8801 76.5772 16.4602 78.0664 16.4602C78.8283 16.4602 79.495 16.3303 80.0665 16.0706C80.6379 15.8109 81.244 15.4472 81.8847 14.9797L83.1055 16.5381C82.5514 17.1096 81.8414 17.5858 80.9756 17.9667C80.1098 18.3477 79.1141 18.5382 77.9885 18.5382C76.5339 18.5382 75.2352 18.1832 74.0923 17.4732C72.9667 16.7459 72.0836 15.6896 71.4429 14.3043C70.8195 12.9017 70.5078 11.222 70.5078 9.26526C70.5078 7.30851 70.8368 5.63748 71.4948 4.25217C72.1529 2.84954 73.0447 1.79324 74.1702 1.08327C75.2958 0.373297 76.5512 0.0183105 77.9365 0.0183105Z" fill="#82919B"/>
<path d="M96.2115 18.2265V9.8367H88.6789V18.2265H86.2113V0.330006H88.6789V7.81069H96.2115V0.330006H98.6791V18.2265H96.2115Z" fill="#82919B"/>
<path d="M106.182 261.309C106.763 261.309 107.26 261.408 107.676 261.607C108.1 261.807 108.416 262.075 108.624 262.413C108.841 262.75 108.949 263.123 108.949 263.53C108.949 264.058 108.797 264.499 108.494 264.854C108.191 265.201 107.776 265.443 107.247 265.582C107.828 265.633 108.304 265.841 108.676 266.205C109.048 266.569 109.235 267.071 109.235 267.711C109.235 268.214 109.105 268.668 108.845 269.075C108.594 269.482 108.23 269.807 107.754 270.049C107.278 270.283 106.715 270.4 106.066 270.4C104.871 270.4 103.927 269.98 103.234 269.14L104.156 268.257C104.451 268.551 104.741 268.768 105.027 268.906C105.312 269.036 105.628 269.101 105.975 269.101C106.442 269.101 106.815 268.971 107.092 268.711C107.377 268.443 107.52 268.084 107.52 267.634C107.52 267.131 107.386 266.772 107.118 266.556C106.858 266.339 106.468 266.231 105.949 266.231H105.26L105.455 265.049H105.923C106.347 265.049 106.685 264.932 106.936 264.698C107.195 264.465 107.325 264.14 107.325 263.724C107.325 263.369 107.208 263.092 106.975 262.893C106.741 262.685 106.429 262.581 106.04 262.581C105.702 262.581 105.395 262.646 105.118 262.776C104.84 262.897 104.563 263.088 104.286 263.348L103.442 262.426C104.23 261.681 105.144 261.309 106.182 261.309Z" fill="#82919B"/>
<path d="M77.9365 251.997C79.0102 251.997 79.9106 252.135 80.6379 252.412C81.3825 252.689 82.1358 253.14 82.8977 253.763L81.547 255.348C80.4561 254.464 79.3045 254.023 78.0924 254.023C76.6032 254.023 75.3997 254.594 74.4819 255.737C73.5815 256.88 73.1312 258.716 73.1312 261.244C73.1312 263.703 73.5815 265.521 74.4819 266.698C75.3824 267.859 76.5772 268.439 78.0664 268.439C78.8283 268.439 79.495 268.309 80.0665 268.049C80.6379 267.789 81.244 267.426 81.8847 266.958L83.1055 268.517C82.5514 269.088 81.8414 269.564 80.9756 269.945C80.1098 270.326 79.1141 270.517 77.9885 270.517C76.5339 270.517 75.2352 270.162 74.0923 269.452C72.9667 268.724 72.0836 267.668 71.4429 266.283C70.8195 264.88 70.5078 263.201 70.5078 261.244C70.5078 259.287 70.8368 257.616 71.4948 256.231C72.1529 254.828 73.0447 253.772 74.1702 253.062C75.2958 252.352 76.5512 251.997 77.9365 251.997Z" fill="#82919B"/>
<path d="M96.2115 270.205V261.815H88.6789V270.205H86.2113V252.309H88.6789V259.789H96.2115V252.309H98.6791V270.205H96.2115Z" fill="#82919B"/>
<path d="M72.6094 55.918L72.6094 29.2582" stroke="#82919B"/>
<path d="M72.6094 247.697L72.6094 221.037" stroke="#82919B"/>
<path d="M0.890625 89.788L72.3207 55.5649L146.998 89.788V185.337L72.3207 221.153L0.890625 185.337V89.788Z" stroke="#82919B"/>
<circle cx="74.7552" cy="137.547" r="62.0013" stroke="#82919B"/>
</svg>
