<svg width="95" height="103" viewBox="0 0 95 103" fill="none" xmlns="http://www.w3.org/2000/svg">
<g id="Group 1000001820">
<g id="Vector">
<path d="M92.9711 93.9811C93.239 93.9811 93.4689 94.0303 93.6609 94.1286C93.8568 94.227 94.0027 94.3597 94.0987 94.5265C94.1987 94.6934 94.2487 94.8773 94.2487 95.0784C94.2487 95.3394 94.1787 95.5575 94.0387 95.7329C93.8988 95.9041 93.7068 96.0239 93.4629 96.0923C93.7308 96.118 93.9508 96.2207 94.1227 96.4003C94.2947 96.58 94.3806 96.8281 94.3806 97.1447C94.3806 97.3929 94.3206 97.6175 94.2007 97.8185C94.0847 98.0196 93.9168 98.18 93.6969 98.2998C93.4769 98.4153 93.217 98.4731 92.9171 98.4731C92.3653 98.4731 91.9294 98.2656 91.6095 97.8506L92.0354 97.4142C92.1714 97.5597 92.3053 97.6667 92.4373 97.7351C92.5692 97.7993 92.7152 97.8314 92.8751 97.8314C93.0911 97.8314 93.263 97.7672 93.391 97.6388C93.5229 97.5062 93.5889 97.3287 93.5889 97.1062C93.5889 96.8581 93.5269 96.6806 93.4029 96.5736C93.283 96.4666 93.103 96.4132 92.8631 96.4132H92.5452L92.6352 95.8292H92.8511C93.0471 95.8292 93.203 95.7714 93.319 95.6559C93.4389 95.5404 93.4989 95.38 93.4989 95.1746C93.4989 94.9992 93.4449 94.8623 93.337 94.7639C93.229 94.6613 93.0851 94.6099 92.9051 94.6099C92.7492 94.6099 92.6072 94.642 92.4793 94.7062C92.3513 94.7661 92.2233 94.8602 92.0954 94.9886L91.7055 94.5329C92.0694 94.165 92.4913 93.9811 92.9711 93.9811Z" fill="#82919B"/>
<path d="M79.9256 89.3809C80.4215 89.3809 80.8373 89.4493 81.1732 89.5862C81.5171 89.7231 81.865 89.9456 82.2169 90.2536L81.5931 91.0365C81.0892 90.6001 80.5574 90.3819 79.9976 90.3819C79.3098 90.3819 78.754 90.6643 78.3301 91.229C77.9143 91.7937 77.7063 92.7007 77.7063 93.9499C77.7063 95.1649 77.9143 96.0633 78.3301 96.6451C78.746 97.2184 79.2978 97.505 79.9856 97.505C80.3375 97.505 80.6454 97.4408 80.9093 97.3125C81.1732 97.1842 81.4531 97.0045 81.749 96.7735L82.3128 97.5435C82.0569 97.8259 81.729 98.0612 81.3292 98.2494C80.9293 98.4377 80.4694 98.5318 79.9496 98.5318C79.2778 98.5318 78.678 98.3564 78.1502 98.0056C77.6304 97.6462 77.2225 97.1243 76.9266 96.4398C76.6387 95.7467 76.4948 94.9168 76.4948 93.9499C76.4948 92.983 76.6467 92.1574 76.9506 91.4729C77.2545 90.7798 77.6664 90.2579 78.1862 89.9071C78.706 89.5563 79.2858 89.3809 79.9256 89.3809Z" fill="#82919B"/>
<path d="M88.3657 98.3778V94.2323H84.8868V98.3778H83.7472V89.5349H84.8868V93.2312H88.3657V89.5349H89.5053V98.3778H88.3657Z" fill="#82919B"/>
</g>
<g id="Vector_2">
<path d="M54.2877 4.96738C54.5557 4.96738 54.7856 5.01658 54.9775 5.11498C55.1734 5.21337 55.3194 5.34599 55.4154 5.51284C55.5153 5.67969 55.5653 5.86365 55.5653 6.06472C55.5653 6.32569 55.4953 6.54387 55.3554 6.71927C55.2154 6.8904 55.0235 7.01019 54.7796 7.07864C55.0475 7.1043 55.2674 7.20698 55.4394 7.38666C55.6113 7.56634 55.6973 7.81447 55.6973 8.13105C55.6973 8.37919 55.6373 8.60379 55.5173 8.80486C55.4014 9.00593 55.2334 9.16636 55.0135 9.28615C54.7936 9.40166 54.5337 9.45941 54.2338 9.45941C53.6819 9.45941 53.2461 9.25192 52.9262 8.83695L53.3521 8.40058C53.488 8.54603 53.622 8.65299 53.7539 8.72144C53.8859 8.78561 54.0318 8.81769 54.1918 8.81769C54.4077 8.81769 54.5796 8.75352 54.7076 8.62518C54.8396 8.49256 54.9055 8.31501 54.9055 8.09255C54.9055 7.84442 54.8436 7.66688 54.7196 7.55993C54.5996 7.45297 54.4197 7.3995 54.1798 7.3995H53.8619L53.9519 6.81553H54.1678C54.3637 6.81553 54.5197 6.75778 54.6356 6.64227C54.7556 6.52676 54.8156 6.36633 54.8156 6.16098C54.8156 5.98557 54.7616 5.84867 54.6536 5.75028C54.5457 5.6476 54.4017 5.59627 54.2218 5.59627C54.0658 5.59627 53.9239 5.62835 53.7959 5.69252C53.6679 5.75242 53.54 5.84654 53.412 5.97488L53.0222 5.51926C53.386 5.15134 53.8079 4.96738 54.2877 4.96738Z" fill="#82919B"/>
<path d="M41.2423 0.367188C41.7381 0.367188 42.154 0.435637 42.4899 0.572537C42.8337 0.709437 43.1816 0.9319 43.5335 1.23993L42.9097 2.02282C42.4059 1.58645 41.8741 1.36827 41.3142 1.36827C40.6265 1.36827 40.0707 1.65063 39.6468 2.21534C39.2309 2.78005 39.023 3.68701 39.023 4.93623C39.023 6.15121 39.2309 7.04962 39.6468 7.63145C40.0627 8.20471 40.6145 8.49135 41.3022 8.49135C41.6541 8.49135 41.962 8.42718 42.2259 8.29883C42.4899 8.17049 42.7698 7.99081 43.0657 7.75979L43.6295 8.52985C43.3736 8.81221 43.0457 9.0475 42.6458 9.23574C42.2459 9.42398 41.7861 9.5181 41.2663 9.5181C40.5945 9.5181 39.9947 9.3427 39.4669 8.99189C38.947 8.63253 38.5392 8.11059 38.2433 7.42609C37.9554 6.73304 37.8114 5.90308 37.8114 4.93623C37.8114 3.96937 37.9634 3.14369 38.2673 2.45919C38.5711 1.76613 38.983 1.2442 39.5028 0.893397C40.0227 0.542591 40.6025 0.367188 41.2423 0.367188Z" fill="#82919B"/>
<path d="M49.6823 9.36409V5.21858H46.2035V9.36409H45.0638V0.5212H46.2035V4.2175H49.6823V0.5212H50.8219V9.36409H49.6823Z" fill="#82919B"/>
</g>
<g id="Group 1000001819">
<g id="Group 30">
<path id="Vector 81" d="M35.1098 21.8757L0.564575 38.4195L0.564575 84.7717L35.2162 102.146L71.4428 84.7717L71.4428 38.4195L35.1098 21.8757ZM35.1098 21.8757L35.1096 9.51807" stroke="#82919B" stroke-width="0.5"/>
<circle id="Ellipse 13" cx="36.0691" cy="61.5403" r="32.2161" stroke="#82919B" stroke-width="0.5"/>
</g>
</g>
<path id="Vector 296" d="M37.9023 59.0161L72.7732 101.933" stroke="white" stroke-width="0.5"/>
<path id="Vector 297" d="M37.2329 61.0957L74.5801 101.876" stroke="#82919B" stroke-width="0.5"/>
</g>
</svg>
