
<svg width="73" height="133" viewBox="0 0 73 133" fill="none" xmlns="http://www.w3.org/2000/svg">
<g id="Group 1000001776">
<g id="Group 37">
<path id="3" d="M52.59 4.5625C52.8742 4.5625 53.1181 4.61129 53.3218 4.70886C53.5296 4.80643 53.6845 4.93794 53.7863 5.10338C53.8923 5.26883 53.9454 5.45124 53.9454 5.65063C53.9454 5.9094 53.8711 6.12575 53.7226 6.29968C53.5742 6.46937 53.3705 6.58815 53.1118 6.65603C53.396 6.68148 53.6293 6.78329 53.8117 6.96147C53.9941 7.13964 54.0854 7.38569 54.0854 7.69961C54.0854 7.94566 54.0217 8.16837 53.8945 8.36776C53.7714 8.56714 53.5933 8.72622 53.3599 8.84501C53.1266 8.95955 52.8509 9.01682 52.5327 9.01682C51.9473 9.01682 51.4849 8.81107 51.1455 8.39957L51.5973 7.96687C51.7415 8.1111 51.8837 8.21716 52.0236 8.28504C52.1636 8.34867 52.3185 8.38049 52.4882 8.38049C52.7172 8.38049 52.8997 8.31685 53.0354 8.18959C53.1754 8.05808 53.2454 7.88203 53.2454 7.66143C53.2454 7.41538 53.1796 7.23933 53.0481 7.13328C52.9209 7.02722 52.73 6.97419 52.4754 6.97419H52.1382L52.2336 6.39513H52.4627C52.6706 6.39513 52.836 6.33786 52.9591 6.22332C53.0863 6.10878 53.1499 5.9497 53.1499 5.74608C53.1499 5.57215 53.0927 5.43639 52.9781 5.33882C52.8636 5.23701 52.7109 5.1861 52.52 5.1861C52.3545 5.1861 52.2039 5.21792 52.0682 5.28155C51.9324 5.34094 51.7967 5.43427 51.6609 5.56154L51.2473 5.10974C51.6334 4.74491 52.0809 4.5625 52.59 4.5625Z" fill="#82919B"/>
<g id="CH">
<path d="M38.7503 0C39.2764 0 39.7176 0.0678752 40.0739 0.203625C40.4387 0.339376 40.8078 0.559971 41.1811 0.86541L40.5193 1.64173C39.9848 1.20903 39.4206 0.992676 38.8267 0.992676C38.097 0.992676 37.5074 1.27266 37.0577 1.83263C36.6165 2.3926 36.3959 3.29195 36.3959 4.53067C36.3959 5.73546 36.6165 6.62632 37.0577 7.20326C37.4989 7.77172 38.0843 8.05595 38.814 8.05595C39.1873 8.05595 39.5139 7.99231 39.7939 7.86505C40.0739 7.73778 40.3709 7.55961 40.6848 7.33053L41.2829 8.09413C41.0114 8.37411 40.6636 8.60743 40.2394 8.79409C39.8151 8.98075 39.3273 9.07408 38.7758 9.07408C38.0631 9.07408 37.4268 8.90015 36.8668 8.55229C36.3153 8.19594 35.8826 7.67839 35.5687 6.99964C35.2633 6.3124 35.1105 5.48941 35.1105 4.53067C35.1105 3.57194 35.2717 2.75319 35.5941 2.07444C35.9166 1.3872 36.3535 0.869652 36.905 0.521791C37.4565 0.17393 38.0716 0 38.7503 0Z" fill="#82919B"/>
<path d="M47.7044 8.92136V4.81066H44.0137V8.92136H42.8047V0.15272H44.0137V3.81798H47.7044V0.15272H48.9134V8.92136H47.7044Z" fill="#82919B"/>
</g>
</g>
<g id="Group 38">
<path id="3_2" d="M52.59 128.023C52.8742 128.023 53.1181 128.072 53.3218 128.169C53.5296 128.267 53.6845 128.398 53.7863 128.564C53.8923 128.729 53.9454 128.912 53.9454 129.111C53.9454 129.37 53.8711 129.586 53.7226 129.76C53.5742 129.93 53.3705 130.049 53.1118 130.116C53.396 130.142 53.6293 130.244 53.8117 130.422C53.9941 130.6 54.0854 130.846 54.0854 131.16C54.0854 131.406 54.0217 131.629 53.8945 131.828C53.7714 132.028 53.5933 132.187 53.3599 132.305C53.1266 132.42 52.8509 132.477 52.5327 132.477C51.9473 132.477 51.4849 132.272 51.1455 131.86L51.5973 131.427C51.7415 131.572 51.8837 131.678 52.0236 131.745C52.1636 131.809 52.3185 131.841 52.4882 131.841C52.7172 131.841 52.8997 131.777 53.0354 131.65C53.1754 131.519 53.2454 131.342 53.2454 131.122C53.2454 130.876 53.1796 130.7 53.0481 130.594C52.9209 130.488 52.73 130.435 52.4754 130.435H52.1382L52.2336 129.856H52.4627C52.6706 129.856 52.836 129.798 52.9591 129.684C53.0863 129.569 53.1499 129.41 53.1499 129.207C53.1499 129.033 53.0927 128.897 52.9781 128.799C52.8636 128.697 52.7109 128.647 52.52 128.647C52.3545 128.647 52.2039 128.678 52.0682 128.742C51.9324 128.801 51.7967 128.895 51.6609 129.022L51.2473 128.57C51.6334 128.205 52.0809 128.023 52.59 128.023Z" fill="#82919B"/>
<g id="CH_2">
<path d="M38.7503 123.46C39.2764 123.46 39.7176 123.528 40.0739 123.664C40.4387 123.8 40.8078 124.02 41.1811 124.326L40.5193 125.102C39.9848 124.669 39.4206 124.453 38.8267 124.453C38.097 124.453 37.5074 124.733 37.0577 125.293C36.6165 125.853 36.3959 126.752 36.3959 127.991C36.3959 129.196 36.6165 130.087 37.0577 130.664C37.4989 131.232 38.0843 131.516 38.814 131.516C39.1873 131.516 39.5139 131.453 39.7939 131.325C40.0739 131.198 40.3709 131.02 40.6848 130.791L41.2829 131.555C41.0114 131.835 40.6636 132.068 40.2394 132.255C39.8151 132.441 39.3273 132.535 38.7758 132.535C38.0631 132.535 37.4268 132.361 36.8668 132.013C36.3153 131.656 35.8826 131.139 35.5687 130.46C35.2633 129.773 35.1105 128.95 35.1105 127.991C35.1105 127.032 35.2717 126.214 35.5941 125.535C35.9166 124.848 36.3535 124.33 36.905 123.982C37.4565 123.634 38.0716 123.46 38.7503 123.46Z" fill="#82919B"/>
<path d="M47.7044 132.382V128.271H44.0137V132.382H42.8047V123.613H44.0137V127.278H47.7044V123.613H48.9134V132.382H47.7044Z" fill="#82919B"/>
</g>
</g>
<path id="Vector 92" d="M36.1388 27.389L36.1388 14.3267" stroke="#82919B" stroke-width="0.5"/>
<path id="Vector 93" d="M36.1388 121.353L36.1388 108.291" stroke="#82919B" stroke-width="0.5"/>
<g id="Group 30">
<path id="Vector 81" d="M1 43.9839L35.9982 27.2158L72.5872 43.9839V90.7996L35.9982 108.348L1 90.7996V43.9839Z" stroke="#82919B" stroke-width="0.5"/>
<circle id="Ellipse 13" cx="37.1901" cy="67.3842" r="30.3734" stroke="#82919B" stroke-width="0.5"/>
</g>
</g>
</svg>
