<svg width="78" height="117" viewBox="0 0 78 117" fill="none" xmlns="http://www.w3.org/2000/svg">
<g id="Group 1000001776">
<g id="Group 37">
<path id="3" d="M55.942 4.89844C56.2471 4.89844 56.5089 4.95081 56.7275 5.05554C56.9507 5.16028 57.1169 5.30145 57.2262 5.47905C57.34 5.65665 57.3969 5.85247 57.3969 6.0665C57.3969 6.34428 57.3173 6.57652 57.1579 6.76323C56.9985 6.94538 56.7799 7.07289 56.5021 7.14575C56.8072 7.17308 57.0577 7.28237 57.2535 7.47363C57.4493 7.66489 57.5472 7.92901 57.5472 8.266C57.5472 8.53012 57.4789 8.76919 57.3423 8.98322C57.2102 9.19725 57.019 9.36802 56.7685 9.49553C56.5181 9.61848 56.2221 9.67996 55.8805 9.67996C55.2521 9.67996 54.7557 9.4591 54.3914 9.01738L54.8764 8.55289C55.0312 8.70772 55.1838 8.82156 55.3341 8.89442C55.4843 8.96273 55.6506 8.99689 55.8327 8.99689C56.0786 8.99689 56.2744 8.92858 56.4202 8.79196C56.5704 8.65079 56.6456 8.46181 56.6456 8.22501C56.6456 7.96089 56.575 7.7719 56.4338 7.65806C56.2972 7.54421 56.0923 7.48729 55.819 7.48729H55.457L55.5595 6.86569H55.8054C56.0285 6.86569 56.2061 6.80422 56.3382 6.68126C56.4748 6.55831 56.5431 6.38754 56.5431 6.16896C56.5431 5.98225 56.4816 5.83653 56.3587 5.73179C56.2357 5.6225 56.0718 5.56785 55.8669 5.56785C55.6893 5.56785 55.5276 5.602 55.3819 5.67031C55.2362 5.73407 55.0904 5.83425 54.9447 5.97087L54.5007 5.48588C54.9151 5.09425 55.3955 4.89844 55.942 4.89844Z" fill="#82919B"/>
<g id="CH">
<path d="M41.0857 0C41.6504 0 42.124 0.0728612 42.5065 0.218583C42.8981 0.364306 43.2943 0.601106 43.6951 0.928982L42.9847 1.76233C42.4109 1.29784 41.8052 1.0656 41.1677 1.0656C40.3844 1.0656 39.7514 1.36615 39.2687 1.96725C38.7951 2.56836 38.5583 3.53377 38.5583 4.86349C38.5583 6.15678 38.7951 7.11308 39.2687 7.7324C39.7423 8.34262 40.3708 8.64772 41.154 8.64772C41.5548 8.64772 41.9054 8.57942 42.206 8.4428C42.5065 8.30619 42.8253 8.11493 43.1623 7.86902L43.8044 8.68871C43.5129 8.98926 43.1395 9.23972 42.6841 9.44009C42.2287 9.64046 41.705 9.74064 41.113 9.74064C40.348 9.74064 39.6649 9.55394 39.0638 9.18052C38.4718 8.798 38.0073 8.24243 37.6703 7.51382C37.3425 6.7761 37.1785 5.89266 37.1785 4.86349C37.1785 3.83433 37.3516 2.95544 37.6977 2.22682C38.0438 1.4891 38.5128 0.933535 39.1048 0.560121C39.6968 0.186707 40.3571 0 41.0857 0Z" fill="#82919B"/>
<path d="M50.6975 9.5767V5.16404H46.7357V9.5767H45.4379V0.163938H46.7357V4.09845H50.6975V0.163938H51.9954V9.5767H50.6975Z" fill="#82919B"/>
</g>
</g>
<path id="Vector 92" d="M38.9888 29.8549L38.9888 15.4463" stroke="#82919B" stroke-width="0.5"/>
<g id="Group 30">
<path id="Vector 81" d="M0.564575 47.2152L38.1337 29.2153L77.4105 47.2152V97.4699L38.1337 116.307L0.564575 97.4699V47.2152Z" stroke="#82919B" stroke-width="0.5"/>
<circle id="Ellipse 13" cx="39.4131" cy="72.3339" r="32.623" stroke="#82919B" stroke-width="0.5"/>
</g>
</g>
</svg>
