<svg width="221" height="227" viewBox="0 0 221 227" fill="none" xmlns="http://www.w3.org/2000/svg">
<g id="Group 1000001776">
<g id="Group 37">
<path id="3" d="M108.671 9.52246C109.264 9.52246 109.773 9.62428 110.198 9.82792C110.632 10.0316 110.955 10.306 111.168 10.6513C111.389 10.9966 111.5 11.3774 111.5 11.7935C111.5 12.3336 111.345 12.7852 111.035 13.1482C110.725 13.5023 110.3 13.7502 109.76 13.8919C110.353 13.945 110.84 14.1575 111.221 14.5294C111.602 14.9013 111.792 15.4148 111.792 16.07C111.792 16.5835 111.659 17.0483 111.394 17.4645C111.137 17.8806 110.765 18.2126 110.278 18.4605C109.791 18.6996 109.216 18.8191 108.551 18.8191C107.33 18.8191 106.365 18.3897 105.656 17.5309L106.599 16.6278C106.9 16.9288 107.197 17.1502 107.489 17.2918C107.781 17.4246 108.104 17.491 108.459 17.491C108.937 17.491 109.317 17.3582 109.601 17.0926C109.893 16.8181 110.039 16.4507 110.039 15.9903C110.039 15.4768 109.902 15.1093 109.627 14.888C109.362 14.6666 108.963 14.5559 108.432 14.5559H107.728L107.927 13.3474H108.405C108.839 13.3474 109.185 13.2278 109.441 12.9888C109.707 12.7497 109.84 12.4177 109.84 11.9927C109.84 11.6297 109.72 11.3464 109.481 11.1427C109.242 10.9302 108.923 10.824 108.525 10.824C108.18 10.824 107.865 10.8904 107.582 11.0232C107.299 11.1472 107.015 11.342 106.732 11.6076L105.869 10.6646C106.674 9.90318 107.609 9.52246 108.671 9.52246Z" fill="#82919B"/>
<g id="CH">
<path d="M79.7842 0C80.8821 0 81.8029 0.141663 82.5466 0.42499C83.3081 0.708318 84.0784 1.16872 84.8575 1.80621L83.4763 3.42649C82.3607 2.52338 81.1831 2.07183 79.9436 2.07183C78.4207 2.07183 77.19 2.65619 76.2515 3.82492C75.3307 4.99364 74.8703 6.87068 74.8703 9.45604C74.8703 11.9706 75.3307 13.8299 76.2515 15.034C77.1723 16.2205 78.3941 16.8137 79.917 16.8137C80.6962 16.8137 81.3779 16.6809 81.9623 16.4153C82.5466 16.1496 83.1664 15.7778 83.8216 15.2997L85.07 16.8934C84.5034 17.4777 83.7774 17.9647 82.892 18.3543C82.0066 18.7439 80.9883 18.9387 79.8373 18.9387C78.3499 18.9387 77.0218 18.5756 75.853 17.8496C74.702 17.1059 73.7989 16.0257 73.1437 14.6091C72.5062 13.1747 72.1875 11.457 72.1875 9.45604C72.1875 7.45505 72.524 5.74623 73.1969 4.32959C73.8698 2.89525 74.7817 1.81506 75.9327 1.08904C77.0837 0.363013 78.3676 0 79.7842 0Z" fill="#82919B"/>
<path d="M98.4724 18.6199V10.0404H90.7694V18.6199H88.246V0.318744H90.7694V7.96858H98.4724V0.318744H100.996V18.6199H98.4724Z" fill="#82919B"/>
</g>
</g>
<g id="Group 38">
<path id="3_2" d="M217.675 66.6862C218.268 66.6862 218.777 66.788 219.202 66.9916C219.636 67.1953 219.959 67.4697 220.172 67.815C220.393 68.1603 220.504 68.5411 220.504 68.9572C220.504 69.4973 220.349 69.9488 220.039 70.3119C219.729 70.666 219.304 70.9139 218.764 71.0556C219.357 71.1087 219.844 71.3212 220.225 71.6931C220.606 72.0649 220.796 72.5785 220.796 73.2337C220.796 73.7472 220.663 74.212 220.398 74.6282C220.141 75.0443 219.769 75.3763 219.282 75.6242C218.795 75.8633 218.219 75.9828 217.555 75.9828C216.334 75.9828 215.368 75.5534 214.66 74.6946L215.603 73.7915C215.904 74.0925 216.201 74.3139 216.493 74.4555C216.785 74.5883 217.108 74.6547 217.462 74.6547C217.941 74.6547 218.321 74.5219 218.605 74.2563C218.897 73.9818 219.043 73.6144 219.043 73.154C219.043 72.6405 218.906 72.273 218.631 72.0517C218.366 71.8303 217.967 71.7196 217.436 71.7196H216.732L216.931 70.5111H217.409C217.843 70.5111 218.188 70.3915 218.445 70.1525C218.711 69.9134 218.844 69.5814 218.844 69.1564C218.844 68.7934 218.724 68.5101 218.485 68.3064C218.246 68.0939 217.927 67.9877 217.529 67.9877C217.184 67.9877 216.869 68.0541 216.586 68.1869C216.303 68.3109 216.019 68.5056 215.736 68.7713L214.873 67.8283C215.678 67.0669 216.612 66.6862 217.675 66.6862Z" fill="#82919B"/>
<g id="CH_2">
<path d="M188.788 57.1637C189.886 57.1637 190.807 57.3054 191.551 57.5887C192.312 57.872 193.082 58.3324 193.861 58.9699L192.48 60.5902C191.365 59.6871 190.187 59.2355 188.947 59.2355C187.425 59.2355 186.194 59.8199 185.255 60.9886C184.335 62.1573 183.874 64.0344 183.874 66.6197C183.874 69.1343 184.335 70.9936 185.255 72.1977C186.176 73.3842 187.398 73.9774 188.921 73.9774C189.7 73.9774 190.382 73.8446 190.966 73.579C191.551 73.3133 192.17 72.9415 192.826 72.4634L194.074 74.0571C193.507 74.6414 192.781 75.1284 191.896 75.518C191.01 75.9076 189.992 76.1023 188.841 76.1023C187.354 76.1023 186.026 75.7393 184.857 75.0133C183.706 74.2696 182.803 73.1894 182.148 71.7728C181.51 70.3384 181.191 68.6207 181.191 66.6197C181.191 64.6187 181.528 62.9099 182.201 61.4933C182.874 60.0589 183.786 58.9788 184.937 58.2527C186.088 57.5267 187.371 57.1637 188.788 57.1637Z" fill="#82919B"/>
<path d="M207.476 75.7836V67.2041H199.773V75.7836H197.25V57.4824H199.773V65.1323H207.476V57.4824H210V75.7836H207.476Z" fill="#82919B"/>
</g>
</g>
<path id="Vector 92" d="M73.8984 57.036L73.8984 29.0215" stroke="#82919B"/>
<path id="Vector 93" d="M150.408 91.4618L173.273 76.5114" stroke="#82919B"/>
<g id="Group 30">
<path id="Vector 81" d="M1 91.7994L74.0453 56.8025L150.411 91.7994V189.509L74.0453 226.135L1 189.509V91.7994Z" stroke="#82919B"/>
<circle id="Ellipse 13" cx="76.5318" cy="140.639" r="63.4146" stroke="#82919B"/>
</g>
</g>
</svg>
