<svg width="197" height="216" viewBox="0 0 197 216" fill="none" xmlns="http://www.w3.org/2000/svg">
<g id="Group 1000001820">
<g id="Vector">
<path d="M193.243 195.047C193.799 195.047 194.276 195.149 194.675 195.354C195.082 195.558 195.385 195.833 195.584 196.18C195.791 196.526 195.895 196.908 195.895 197.325C195.895 197.867 195.75 198.32 195.459 198.684C195.169 199.04 194.77 199.288 194.264 199.431C194.82 199.484 195.277 199.697 195.634 200.07C195.991 200.443 196.169 200.958 196.169 201.616C196.169 202.131 196.045 202.597 195.796 203.014C195.555 203.432 195.206 203.765 194.749 204.014C194.293 204.253 193.753 204.373 193.131 204.373C191.985 204.373 191.08 203.943 190.416 203.081L191.3 202.175C191.582 202.477 191.86 202.699 192.134 202.841C192.408 202.974 192.711 203.041 193.043 203.041C193.492 203.041 193.849 202.908 194.114 202.641C194.388 202.366 194.525 201.997 194.525 201.536C194.525 201.02 194.397 200.652 194.139 200.43C193.89 200.208 193.517 200.097 193.019 200.097H192.359L192.545 198.884H192.994C193.4 198.884 193.724 198.764 193.965 198.525C194.214 198.285 194.339 197.952 194.339 197.525C194.339 197.161 194.226 196.877 194.002 196.673C193.778 196.459 193.479 196.353 193.106 196.353C192.782 196.353 192.487 196.419 192.222 196.553C191.956 196.677 191.69 196.872 191.425 197.139L190.615 196.193C191.371 195.429 192.246 195.047 193.243 195.047Z" fill="#82919B"/>
<path d="M166.158 185.496C167.188 185.496 168.051 185.639 168.748 185.923C169.462 186.207 170.185 186.669 170.915 187.308L169.62 188.934C168.574 188.028 167.47 187.575 166.308 187.575C164.88 187.575 163.726 188.161 162.846 189.334C161.982 190.506 161.551 192.389 161.551 194.983C161.551 197.505 161.982 199.37 162.846 200.578C163.709 201.768 164.855 202.364 166.283 202.364C167.013 202.364 167.653 202.23 168.2 201.964C168.748 201.697 169.33 201.324 169.944 200.845L171.114 202.443C170.583 203.03 169.902 203.518 169.072 203.909C168.242 204.3 167.287 204.495 166.208 204.495C164.813 204.495 163.568 204.131 162.472 203.403C161.393 202.657 160.546 201.573 159.932 200.152C159.334 198.713 159.035 196.99 159.035 194.983C159.035 192.975 159.351 191.261 159.982 189.84C160.613 188.401 161.468 187.317 162.547 186.589C163.626 185.861 164.83 185.496 166.158 185.496Z" fill="#82919B"/>
<path d="M183.681 204.175V195.569H176.458V204.175H174.092V185.816H176.458V193.49H183.681V185.816H186.047V204.175H183.681Z" fill="#82919B"/>
</g>
<g id="Vector_2">
<path d="M112.93 10.241C113.486 10.241 113.964 10.3431 114.362 10.5474C114.769 10.7517 115.072 11.0271 115.271 11.3735C115.479 11.7199 115.583 12.1018 115.583 12.5192C115.583 13.0611 115.437 13.514 115.147 13.8782C114.856 14.2335 114.458 14.4822 113.951 14.6243C114.508 14.6776 114.964 14.8908 115.321 15.2638C115.678 15.6369 115.857 16.152 115.857 16.8093C115.857 17.3245 115.732 17.7908 115.483 18.2082C115.242 18.6257 114.894 18.9588 114.437 19.2075C113.98 19.4473 113.441 19.5672 112.818 19.5672C111.672 19.5672 110.768 19.1364 110.103 18.2748L110.988 17.3689C111.27 17.6709 111.548 17.8929 111.822 18.035C112.096 18.1682 112.399 18.2349 112.731 18.2349C113.179 18.2349 113.536 18.1016 113.802 17.8352C114.076 17.5598 114.213 17.1912 114.213 16.7294C114.213 16.2142 114.084 15.8456 113.827 15.6235C113.578 15.4015 113.204 15.2905 112.706 15.2905H112.046L112.233 14.078H112.681C113.088 14.078 113.412 13.9581 113.652 13.7183C113.902 13.4785 114.026 13.1454 114.026 12.7191C114.026 12.3549 113.914 12.0707 113.69 11.8664C113.466 11.6532 113.167 11.5467 112.793 11.5467C112.469 11.5467 112.175 11.6133 111.909 11.7465C111.643 11.8709 111.378 12.0663 111.112 12.3327L110.303 11.3868C111.058 10.6229 111.934 10.241 112.93 10.241Z" fill="#82919B"/>
<path d="M85.8457 0.690247C86.8751 0.690247 87.7385 0.83236 88.4359 1.11659C89.1498 1.40081 89.8721 1.86268 90.6027 2.50219L89.3076 4.12761C88.2615 3.22164 87.1574 2.76865 85.9951 2.76865C84.5672 2.76865 83.4132 3.35487 82.5332 4.52731C81.6698 5.69974 81.2381 7.58274 81.2381 10.1763C81.2381 12.6988 81.6698 14.5641 82.5332 15.772C83.3966 16.9622 84.5423 17.5573 85.9702 17.5573C86.7008 17.5573 87.34 17.4241 87.888 17.1576C88.4359 16.8912 89.017 16.5181 89.6314 16.0385L90.8019 17.6373C90.2706 18.2235 89.5898 18.712 88.7597 19.1028C87.9295 19.4936 86.9747 19.689 85.8955 19.689C84.5008 19.689 83.2555 19.3249 82.1596 18.5965C81.0804 17.8504 80.2336 16.7668 79.6193 15.3457C79.0215 13.9068 78.7227 12.1837 78.7227 10.1763C78.7227 8.16896 79.0381 6.45472 79.6691 5.03358C80.3 3.59469 81.1551 2.51107 82.2344 1.78274C83.3136 1.05441 84.5174 0.690247 85.8457 0.690247Z" fill="#82919B"/>
<path d="M103.369 19.3693V10.7625H96.1459V19.3693H93.7799V1.01H96.1459V8.68412H103.369V1.01H105.735V19.3693H103.369Z" fill="#82919B"/>
</g>
<g id="Group 1000001819">
<g id="Group 30">
<path id="Vector 81" d="M73.1121 45.3457L1.39062 79.6932L1.39062 175.928L73.3329 212L148.545 175.928L148.545 79.6932L73.1121 45.3457ZM73.1121 45.3457L73.1117 19.6891" stroke="#82919B"/>
<circle id="Ellipse 13" cx="75.1041" cy="127.696" r="66.9049" stroke="#82919B"/>
</g>
</g>

<path id="Vector 297" d="M77.5195 126.773L155.058 211.44" stroke="#82919B"/>
</g>
</svg>
