<svg width="637" height="784" viewBox="0 0 637 784" fill="none" xmlns="http://www.w3.org/2000/svg">
<path d="M423.344 39.0437L412.192 15.1777C411.915 14.5854 411.366 14.1658 410.722 14.0539L353.277 4.07668M423.344 39.0437L447.341 50.228C447.877 50.478 448.276 50.9529 448.428 51.5248L461.041 98.7609C461.275 99.6361 462.068 100.245 462.973 100.245H509.125C510.229 100.245 511.125 101.14 511.125 102.245V136.635M423.344 39.0437L390.929 67.881M211.344 25.8112H260.707C260.922 25.8112 261.135 25.7767 261.339 25.7089L285.45 17.6825M211.344 25.8112L113.625 62.201M211.344 25.8112L231.685 62.201M113.625 62.201L100.777 49.3694C99.7844 48.3783 98.1066 48.69 97.5363 49.9714L86.028 75.8312C85.6912 76.588 85.8558 77.4741 86.4419 78.0595L97.9243 89.5269C98.4178 90.0197 98.6189 90.734 98.4551 91.4119L92.922 114.305M113.625 62.201L152.404 71.3628C153.184 71.5471 153.779 72.1793 153.915 72.9691L161.656 117.835M49.0314 399.634H39.8535C39.3641 399.634 38.8917 399.455 38.5257 399.13L24.8599 386.998C24.4323 386.618 24.1876 386.074 24.1876 385.502V373.998C24.1876 373.467 23.9766 372.958 23.6009 372.583L1.58672 350.598C1.21108 350.222 1 349.713 1 349.182V293.762M49.0314 399.634L44.8448 421.137M49.0314 399.634L123.563 380.833M98.7189 644.438L75.1691 620.919C74.4365 620.187 74.3835 619.018 75.0468 618.223L121.683 562.332C122.586 561.25 122.116 559.598 120.779 559.153L111.969 556.22M98.7189 644.438L74.9222 706.228C74.4176 707.539 75.3846 708.947 76.7886 708.947H86.0689C86.7298 708.947 87.3481 709.274 87.7207 709.82L111.373 744.465C111.746 745.011 112.364 745.337 113.025 745.337H148.643M98.7189 644.438L123.282 637.084C123.468 637.028 123.661 637 123.856 637H145.665C145.964 637 146.259 637.067 146.529 637.196L161.656 644.438M299.125 733.758H275.517C274.759 733.758 274.067 734.186 273.728 734.863L250.161 781.936C249.739 782.779 248.786 783.213 247.873 782.978L198.432 770.236C198.208 770.178 197.996 770.082 197.805 769.952L162.166 745.684C161.834 745.458 161.442 745.337 161.04 745.337H148.643M299.125 733.758L311.908 697.057C312.187 696.253 312.945 695.715 313.796 695.715H323.625C324.73 695.715 325.625 694.819 325.625 693.715V671.758C325.625 671.212 325.848 670.69 326.242 670.313L353.277 644.438M299.125 733.758L274.281 708.947M434.938 510.457H459.781H517.406C518.511 510.457 519.406 511.353 519.406 512.457V520.036C519.406 521.141 520.302 522.036 521.406 522.036H521.766C522.369 522.036 522.939 521.764 523.319 521.297L572.406 460.835L597.255 423.61C598.044 422.429 597.385 420.825 595.993 420.54L534.687 407.981C534.44 407.93 534.185 407.927 533.936 407.971L509.469 412.315M434.938 510.457L421.709 497.315C420.805 496.418 420.959 494.915 422.027 494.22L452.264 474.538C452.589 474.327 452.968 474.214 453.355 474.214H468.825C469.394 474.214 469.936 473.972 470.315 473.548L494.053 447.022C494.381 446.655 494.562 446.18 494.562 445.688V433.228C494.562 432.801 494.699 432.386 494.952 432.043L509.469 412.315M434.938 510.457L425.09 526.998M386.906 275.578V286.81C386.906 287.915 386.011 288.81 384.906 288.81H377.79C376.516 288.81 375.566 289.986 375.835 291.232L380.663 313.622M386.906 275.578L434.938 252.42M386.906 275.578L348.197 263.53C348.082 263.494 347.97 263.448 347.863 263.392L312.375 244.789M434.938 252.42L468.573 274.815C469.263 275.274 469.598 276.112 469.415 276.921L459.088 322.595C458.71 324.265 460.468 325.606 461.979 324.801L481.662 314.317C482.439 313.904 483.394 314.046 484.016 314.667L493.976 324.614C494.351 324.99 494.562 325.499 494.562 326.03V348.012C494.562 349.116 495.458 350.012 496.562 350.012H508.413C509.073 350.012 509.692 349.685 510.064 349.139L534.313 313.622M434.938 252.42L440.143 225.619M534.313 313.622L569.677 324.859C570.343 325.071 571.072 324.919 571.598 324.459L584 313.622M534.313 313.622L512.099 304.267C511.49 304.011 511.046 303.469 510.915 302.821L505.92 278.139M584 313.622H631.952C633.764 313.622 634.642 311.405 633.322 310.164L609.869 288.119C609.254 287.541 609.068 286.64 609.404 285.866L630.245 237.832C630.331 237.634 630.384 237.424 630.403 237.209L633.57 200.845C633.641 200.027 633.205 199.249 632.471 198.882L604.19 184.761M584 313.622L570.835 293.889C570.778 293.804 570.728 293.716 570.686 293.623L553.861 257.481C553.764 257.273 553.632 257.083 553.47 256.92L534.313 237.534M521.062 136.635L584 174.679L604.19 184.761M521.062 136.635H511.125M521.062 136.635L533.556 159.855C533.998 160.678 533.812 161.697 533.108 162.311L523.336 170.819C522.94 171.164 522.696 171.65 522.656 172.174L519.458 213.594C519.424 214.027 519.533 214.46 519.768 214.826L534.313 237.534M511.125 136.635L500.714 140.302M509.469 412.315L461.293 420.869C460.401 421.027 459.515 420.566 459.131 419.746L448.726 397.479C448.398 396.775 447.691 396.326 446.914 396.326H400.115C399.172 396.326 398.358 395.668 398.16 394.747L385.906 337.929M425.09 526.998L398.5 571.659L365.524 632.583C365.425 632.766 365.298 632.932 365.148 633.076L353.277 644.438M425.09 526.998L398.5 533.524L376.142 538.391C375.612 538.506 375.058 538.401 374.606 538.1L351.384 522.595C350.858 522.243 350.196 522.162 349.6 522.375L336.667 526.998M336.667 526.998L347.401 543.9C347.786 544.506 347.816 545.273 347.48 545.908L337.025 565.657C336.794 566.093 336.411 566.428 335.949 566.598L320.237 572.391C318.987 572.852 318.528 574.384 319.319 575.456L325.625 584M336.667 526.998L313.102 533.328C312.633 533.454 312.135 533.406 311.7 533.191L299.543 527.204C299.268 527.068 298.966 526.998 298.659 526.998H276.94C275.609 526.998 274.65 525.722 275.019 524.443L280.871 504.178C281.043 503.585 280.93 502.946 280.567 502.447L271.048 489.357M325.625 584L336.252 603.431C336.516 603.916 336.569 604.488 336.398 605.013L331.955 618.601C331.745 619.241 331.872 619.944 332.293 620.47L340.452 630.69L353.277 644.438M325.625 584L318.526 595.358C318.058 596.107 317.155 596.46 316.304 596.228L291.073 589.347C290.393 589.161 289.665 589.347 289.158 589.837L274.281 604.19M274.281 604.19L259.993 630.141C259.796 630.499 259.494 630.788 259.128 630.969L232.408 644.201C232.094 644.356 231.826 644.591 231.632 644.883L215.583 668.925C214.893 669.958 215.302 671.363 216.438 671.865L254.287 688.581C254.522 688.685 254.735 688.833 254.914 689.017L274.281 708.947M274.281 604.19L260.28 589.66C259.903 589.269 259.384 589.048 258.84 589.048H242.733C242.274 589.048 241.829 588.89 241.473 588.601L222.288 573.05C221.369 572.305 220.007 572.517 219.358 573.505L212.369 584.139M274.281 708.947H260.559C260.005 708.947 259.476 709.177 259.098 709.582L242.454 727.397C242.174 727.697 241.809 727.903 241.408 727.988L214.646 733.677C214.392 733.731 214.131 733.735 213.876 733.689L181.771 727.915C181.56 727.876 181.356 727.805 181.168 727.702L169.085 721.111C168.215 720.637 167.129 720.871 166.532 721.662L161.851 727.857M148.643 745.337L161.851 727.857M161.851 727.857L149.003 709.463C148.769 709.127 148.643 708.728 148.643 708.318V672.171C148.643 671.397 149.089 670.693 149.789 670.362L160.51 665.303C161.21 664.973 161.656 664.268 161.656 663.494V644.438M161.656 644.438L180.703 605.715C181.135 604.836 182.14 604.399 183.078 604.683L196.454 608.741C197.398 609.027 198.409 608.583 198.837 607.694L204.167 596.619L212.369 584.139M111.969 556.22L89.9527 548.891C89.2346 548.652 88.4432 548.839 87.9077 549.374L64.5232 572.728C64.1482 573.102 63.6399 573.313 63.1099 573.313H52.0056C51.2059 573.313 50.4831 572.836 50.1677 572.101L30.8907 527.18C30.8387 527.059 30.7988 526.933 30.7716 526.804L24.6962 497.983C24.4341 496.74 25.3826 495.571 26.6532 495.571H46.2952C47.6491 495.571 48.6118 494.254 48.2008 492.964L45.8457 485.571M111.969 556.22L132.808 539.139C133.248 538.778 133.822 538.622 134.384 538.71L173.226 544.779C173.651 544.845 174.044 545.047 174.345 545.354L193.125 564.51M111.969 556.22V528.32C111.969 527.518 111.49 526.794 110.753 526.48L89.8984 517.595C89.212 517.303 88.7454 516.652 88.6882 515.908L87.1252 495.571M212.369 584.139L193.125 564.51M87.1252 495.571L45.8457 485.571M87.1252 495.571L111.969 460.835M45.8457 485.571L37.593 459.668C37.4911 459.348 37.4713 459.008 37.5354 458.679L44.8448 421.137M44.8448 421.137L78.0197 412.929C79.2808 412.617 80.5 413.571 80.5 414.87V432.571V445.483C80.5 446.095 80.7803 446.674 81.2608 447.053L98.1739 460.405C98.5269 460.683 98.9635 460.835 99.4132 460.835H111.969M111.969 460.835L133.5 441.405M133.5 441.405L146.119 467.905M133.5 441.405L113.526 427.357C112.654 426.743 112.416 425.554 112.985 424.653L123.254 408.394C123.455 408.074 123.563 407.704 123.563 407.326V380.833M146.119 467.905V484.297C146.119 485.074 146.569 485.781 147.274 486.11L166.416 495.032C167.121 495.361 167.571 496.068 167.571 496.845V508.457C167.571 509.562 168.467 510.457 169.571 510.457H197.252C197.79 510.457 198.306 510.674 198.682 511.059L214.262 526.998M146.119 467.905L173.462 426.891C173.732 426.485 174.141 426.193 174.611 426.067L193.125 421.137M214.262 526.998L193.125 564.51M214.262 526.998L241.824 503.409C241.957 503.296 242.104 503.2 242.261 503.124L271.048 489.357M271.048 489.357V474.766C271.048 474.405 271.145 474.051 271.33 473.741L279.017 460.862C279.575 459.928 279.283 458.719 278.361 458.142L262.282 448.075C261.06 447.31 261.025 445.541 262.216 444.728L280.021 432.571M193.125 421.137L203.766 426.076C204.03 426.198 204.317 426.262 204.608 426.262H219.571C220.201 426.262 220.794 426.558 221.171 427.062L229.638 438.351C230.606 439.642 232.625 439.314 233.136 437.784L236.446 427.851C236.753 426.932 237.675 426.364 238.634 426.505L280.021 432.571M193.125 421.137L197.822 408.629C197.997 408.163 198.34 407.779 198.783 407.552L212.991 400.284C213.751 399.895 214.181 399.066 214.06 398.221L212.369 386.401M280.021 432.571L317.738 390.929M212.369 386.401L167.832 380.866C167.659 380.844 167.49 380.8 167.328 380.735L149.892 373.675C149.137 373.369 148.643 372.635 148.643 371.821V350.012M212.369 386.401L254.643 363.167M148.643 350.012L123.563 380.833M148.643 350.012L161.851 337.929M123.563 380.833L107.347 343.77C107.126 343.263 106.705 342.871 106.184 342.687L67.8809 329.095M30.8125 373.169H45.3141C46.9075 373.169 47.861 371.396 46.983 370.067L39.6582 358.974C39.3038 358.437 39.2291 357.763 39.4574 357.162L44.5994 343.622C44.7584 343.204 45.0533 342.851 45.4368 342.619L67.8809 329.095M67.8809 329.095L63.9375 293.762M63.9375 293.762L37.4377 282.405M63.9375 293.762H87.7167C88.3822 293.762 89.0041 293.431 89.3758 292.879L107 266.697M37.4377 282.405L1 293.762M37.4377 282.405L31.1694 264.496C30.9467 263.859 31.0595 263.154 31.4695 262.619L50.1002 238.3C50.4712 237.816 50.6009 237.189 50.4523 236.597L44.8448 214.262M1 293.762V274.33C1 274.062 1.05388 273.796 1.15843 273.55L30.8125 203.55M44.8448 214.262L30.8125 203.55M44.8448 214.262L67.6111 225.486C67.79 225.574 67.9547 225.689 68.0997 225.826L79.7222 236.799C80.2082 237.258 80.8912 237.444 81.5426 237.294L99.4286 233.19M30.8125 203.55L37.4377 187.911L48.7204 150.888C48.9148 150.25 49.4141 149.751 50.0519 149.557L80.5 140.302M99.4286 233.19L101.425 242.024M99.4286 233.19L118.101 199.946C118.269 199.647 118.357 199.31 118.357 198.967V174.679M107 266.697L133.355 298.634C133.451 298.751 133.534 298.878 133.602 299.013L148.406 328.622C148.561 328.932 148.795 329.197 149.083 329.39L161.851 337.929M107 266.697L101.425 242.024M161.851 337.929L185.418 325.759C186.082 325.416 186.5 324.73 186.5 323.982V312.005M186.5 298.81L161.75 266.818C161.688 266.737 161.619 266.662 161.546 266.592L158.267 263.476M186.5 298.81V312.005M186.5 298.81L225.851 293.81M101.425 242.024L122.822 237.684C123.299 237.587 123.795 237.668 124.217 237.91L137.636 245.63M118.357 174.679H102.549C101.851 174.679 101.203 174.315 100.84 173.719L80.5 140.302M118.357 174.679L148.643 161.262M80.5 140.302L86.0314 138.621C86.7091 138.415 87.2273 137.866 87.3938 137.177L92.922 114.305M148.643 161.262L173.881 174.679M148.643 161.262L151.167 140.44M173.881 174.679L149.179 198.963C148.833 199.303 148.623 199.756 148.587 200.24L146.159 232.656C146.133 233.006 146.015 233.343 145.817 233.633L137.636 245.63M173.881 174.679L198.094 187.911M137.636 245.63L142.126 248.214C142.264 248.293 142.391 248.389 142.507 248.498L158.267 263.476M198.094 187.911L218.048 207.952M198.094 187.911L207.371 172.334C207.731 171.728 208.384 171.357 209.089 171.357H216.048C217.152 171.357 218.048 170.462 218.048 169.357V154.952M218.048 207.952L204.167 225.619L182.035 262.505C181.674 263.108 181.023 263.476 180.32 263.476H158.267M218.048 207.952V225.619M218.048 154.952L231.929 140.302M218.048 154.952V128.268C218.048 127.596 217.709 126.968 217.147 126.598L193.125 110.786M231.929 140.302L254.268 174.112C254.511 174.479 254.869 174.757 255.285 174.9L274.281 181.452M231.929 140.302L258.233 136.827C259.1 136.713 259.792 136.048 259.942 135.186L265.201 104.852M274.281 181.452V214.262M274.281 181.452H317.738M274.281 214.262H254.989C254.76 214.262 254.532 214.222 254.317 214.145L238.986 208.67C237.898 208.281 236.707 208.893 236.39 210.004L232.343 224.168C232.098 225.027 231.313 225.619 230.42 225.619H218.048M274.281 214.262L299.125 252.42M218.048 225.619L231.541 244.254C231.793 244.601 231.926 245.02 231.921 245.449L231.687 266.496C231.686 266.63 231.671 266.763 231.643 266.894L225.851 293.81M193.125 110.786L161.656 117.835M193.125 110.786L212.95 100.899C213.731 100.51 214.169 99.6591 214.033 98.7973L211.594 83.3467C211.448 82.4207 211.965 81.5175 212.837 81.174L234.846 72.5054C235.973 72.0616 236.45 70.7259 235.859 69.6687L231.685 62.201M151.167 140.44L153.52 121.021C153.622 120.181 154.243 119.495 155.069 119.31L161.656 117.835M151.167 140.44L128.452 127.19L103.387 111.313C102.863 110.98 102.214 110.911 101.631 111.124L92.922 114.305M231.685 62.201L261.031 71.6667M261.031 71.6667L265.94 99.9029C265.98 100.129 265.98 100.361 265.941 100.587L265.201 104.852M261.031 71.6667L310.167 54M440.143 225.619L458.125 233.19L499.78 251.999C500.367 252.263 500.79 252.794 500.918 253.425L505.92 278.139M440.143 225.619L434.938 203.55M434.938 203.55L457.059 182.469C457.693 181.864 458.647 181.743 459.412 182.169L468.35 187.149C469.154 187.597 470.159 187.438 470.787 186.766L494.24 161.608C494.452 161.38 494.608 161.106 494.696 160.808L500.714 140.302M434.938 203.55L398.5 187.911L375.313 174.679M500.714 140.302L471.432 127.915C470.466 127.507 469.349 127.913 468.872 128.847L459.362 147.448C458.748 148.649 457.147 148.911 456.183 147.968L435.356 127.6C435.083 127.332 434.739 127.149 434.365 127.071L398.5 119.619M505.92 278.139L522.212 267.042C522.542 266.817 522.797 266.499 522.945 266.128L534.313 237.534M534.313 237.534L553.581 214.422C553.67 214.315 553.769 214.219 553.877 214.133L572.221 199.636C572.344 199.539 572.478 199.457 572.62 199.391L604.19 184.761M375.313 174.679L358.119 161.262M375.313 174.679L365.581 213.439C365.449 213.965 365.11 214.415 364.64 214.685L312.375 244.789M358.119 161.262L365.375 136.635M358.119 161.262L317.738 181.452M365.375 136.635L398.5 119.619M365.375 136.635L325.625 110.786M398.5 119.619L390.929 67.881M390.929 67.881L344.238 59.0476M344.238 59.0476L331.619 47.3141M344.238 59.0476L325.625 110.786M331.619 47.3141L353.277 4.07668M331.619 47.3141L310.167 54M353.277 4.07668L336.059 1.08617C335.733 1.02961 335.398 1.05465 335.085 1.15906L285.45 17.6825M310.167 54L285.45 17.6825M325.625 110.786L281.143 106.417M265.201 104.852L281.143 106.417M317.738 181.452L303.942 140.69C303.886 140.524 303.808 140.367 303.711 140.221L281.143 106.417M299.125 252.42L312.375 244.789M299.125 252.42L290.268 277.317C290.082 277.841 289.686 278.264 289.175 278.484L265.201 288.81M265.201 288.81L279.439 312.647C279.8 313.251 280.452 313.622 281.156 313.622H299.125M265.201 288.81L225.851 293.81M299.125 313.622L338.22 299.61C339.387 299.191 340.649 299.924 340.864 301.145L343.889 318.281C344.081 319.373 345.126 320.1 346.217 319.901L380.663 313.622M299.125 313.622L274.281 337.929M380.663 313.622L385.906 337.929M385.906 337.929L353.757 349.834C353.442 349.95 353.162 350.144 352.941 350.398L317.738 390.929M317.738 390.929L290.481 373.492C290.152 373.281 289.891 372.978 289.732 372.621L274.281 337.929M274.281 337.929L254.643 363.167M254.643 363.167L231.685 342.976L211.699 320.658C211.466 320.398 211.17 320.204 210.839 320.094L186.5 312.005" stroke="#CED4D8" stroke-width="0.65" stroke-miterlimit="10"/>
<path d="M132.808 539.139L115.237 553.542C113.931 554.612 111.969 553.683 111.969 551.995V528.32C111.969 527.518 111.49 526.794 110.753 526.48L89.8983 517.595C89.2118 517.303 88.7452 516.652 88.688 515.908L87.1807 496.296C87.1447 495.827 87.2748 495.361 87.5481 494.979L111.843 461.011C111.927 460.894 112.023 460.786 112.13 460.69L131.508 443.202C132.501 442.306 134.078 442.619 134.653 443.827L145.925 467.497C146.052 467.765 146.119 468.059 146.119 468.357V484.297C146.119 485.074 146.569 485.781 147.274 486.11L166.416 495.032C167.121 495.361 167.571 496.068 167.571 496.845V508.457C167.571 509.562 168.467 510.457 169.571 510.457H197.252C197.79 510.457 198.306 510.674 198.682 511.059L213.213 525.925C213.834 526.561 213.962 527.531 213.525 528.305L194.432 562.191C193.778 563.351 192.194 563.56 191.261 562.609L174.345 545.354C174.044 545.047 173.651 544.845 173.226 544.779L134.384 538.71C133.821 538.622 133.248 538.778 132.808 539.139Z" stroke="#32B4DC" stroke-miterlimit="10"/>
<circle cx="133.499" cy="469.167" r="6.30952" fill="#32B4DC"/>
</svg>
