<svg width="139" height="45" viewBox="0 0 139 45" fill="none" xmlns="http://www.w3.org/2000/svg">
<path d="M123.079 15.8513L126.883 27.2232L118.765 27.2232L122.183 15.851L123.079 15.8513ZM131.106 39.8448L139 39.8448L128.956 9.8205L116.367 9.82051L107.344 39.8448L114.972 39.8448L116.968 33.2111L128.887 33.2111L131.106 39.8448Z" fill="#32B4DC"/>
<path d="M93.7458 39.8448L93.7458 15.851L108.337 15.851L108.337 9.82025L86.4722 9.82026L86.4722 39.8448L93.7458 39.8448Z" fill="#32B4DC"/>
<path d="M23.5934 33.301L12.7852 33.301C14.4954 27.6118 15.5421 21.9886 16.0233 15.9414L23.5934 15.9412L23.5934 33.301ZM30.6893 9.91035L9.64494 9.91035C8.777 17.7939 7.51983 25.4178 5.29892 33.301L-2.38159e-07 33.301L0.752614 39.9349L35.3352 39.9349L36.1442 33.301L30.6893 33.301L30.6893 9.91035Z" fill="#32B4DC"/>
<path d="M40.0679 33.7471L40.0679 11.2516L47.2461 7.22668L47.2461 29.7487L60.1322 36.975L73.0184 29.7487L73.0184 7.22667L80.1965 11.2516L80.1965 33.7489L60.1341 45L40.0679 33.7471Z" fill="#32B4DC"/>
<path fill-rule="evenodd" clip-rule="evenodd" d="M63.0679 8.03358C60.1633 5.29472 52.9252 7.47744 57.5765 15.5929C58.3211 16.892 59.2435 18.1323 60.133 19.2343C62.2381 16.6251 66.239 11.0259 63.0679 8.03358ZM60.1331 30.0007C56.3448 25.3497 51.0932 20.4085 49.4795 14.387C48.7371 11.617 48.7588 8.7734 50.0509 6.14531C51.8426 2.50192 55.6988 0.00150552 60.1288 -3.26451e-05C64.6041 -3.34996e-05 68.517 2.55463 70.2826 6.28313C71.5128 8.88065 71.5128 11.6709 70.7814 14.3918C69.2178 20.2112 64.0495 25.3736 60.1331 30.0007Z" fill="#32B4DC"/>
</svg>
