<svg width="33" height="48" viewBox="0 0 33 48" fill="none" xmlns="http://www.w3.org/2000/svg">
<path d="M29.7119 25.7891H29.7234C29.7234 25.7891 25.3753 32.1671 21.7192 36.9074C18.559 41.0018 17.6363 44.5079 17.3711 46.2034C17.2673 46.8262 16.7598 47.2875 16.1485 47.2875C15.5372 47.2875 15.0298 46.8262 14.926 46.2034C14.6607 44.5079 13.738 41.0018 10.5778 36.9074C10.0934 36.273 9.5975 35.6156 9.10156 34.9467L21.0387 20.7605L30.6461 9.36548C31.7071 11.5914 32.2954 14.0827 32.2954 16.7238C32.2954 20.0685 31.3381 23.171 29.7119 25.7891Z" fill="#32B4DC"/>
<path d="M21.0403 20.7604L9.10314 34.9466C5.85071 30.5869 2.57521 25.789 2.57521 25.789H2.58674C2.24074 25.2354 1.92933 24.6703 1.66406 24.0821L11.2599 12.687C10.3488 13.7827 9.80669 15.1898 9.80669 16.7237C9.80669 20.2299 12.6439 23.0671 16.1501 23.0671C18.1223 23.0671 19.8869 22.1675 21.0403 20.7604Z" fill="#32B4DC"/>
<path d="M21.2197 0.853476L11.3355 12.5945L3.76953 5.9974C6.7221 2.32976 11.174 0 16.1449 0C17.9211 0 19.628 0.29987 21.2197 0.853476Z" fill="#32B4DC"/>
<path d="M11.3374 12.5946L11.2567 12.6868L1.66082 24.0819C0.599739 21.8559 0 19.3647 0 16.7236C0 12.6407 1.41862 8.89234 3.77144 5.99744L11.3374 12.5946Z" fill="#32B4DC"/>
<path d="M21.0382 20.7604C21.9493 19.6647 22.4914 18.2576 22.4914 16.7237C22.4914 13.2175 19.6542 10.3803 16.148 10.3803C14.1758 10.3803 12.4112 11.2799 11.2578 12.687L21.2227 0.853638C25.3632 2.26072 28.7541 5.36322 30.6456 9.36533L21.0382 20.7604Z" fill="#32B4DC"/>
</svg>
